<svg id="Layer_1" data-name="Layer 1" xmlns="http://www.w3.org/2000/svg" viewBox="0 0 70 70"><title>kufrik</title><path d="M28.82,4.09H41.18a8.93,8.93,0,0,1,6.56,2.72,8.93,8.93,0,0,1,2.72,6.56v3.09h9.27A9.28,9.28,0,0,1,69,25.73V56.64a9.28,9.28,0,0,1-9.27,9.27H10.27a8.93,8.93,0,0,1-6.56-2.72A8.93,8.93,0,0,1,1,56.64V25.73a8.93,8.93,0,0,1,2.72-6.56,8.93,8.93,0,0,1,6.56-2.72h9.27V13.36a8.93,8.93,0,0,1,2.72-6.56A8.93,8.93,0,0,1,28.82,4.09ZM13.36,59.73V22.64H10.27a3.09,3.09,0,0,0-3.09,3.09V56.64a3.09,3.09,0,0,0,3.09,3.09Zm37.09,0V22.64H19.55V59.73Zm9.27-37.09H56.64V59.73h3.09a3.09,3.09,0,0,0,3.09-3.09V25.73a3.09,3.09,0,0,0-3.09-3.09ZM41.18,10.27H28.82a3.09,3.09,0,0,0-3.09,3.09v3.09H44.27V13.36a3.09,3.09,0,0,0-3.09-3.09Z"/></svg>