<svg id="Layer_1" data-name="Layer 1" xmlns="http://www.w3.org/2000/svg" viewBox="0 0 70 70"><title>srdce</title><path d="M51.5,5.62A17.12,17.12,0,0,1,60.28,8a17.44,17.44,0,0,1,6.37,6.37A17.12,17.12,0,0,1,69,23.13a17.49,17.49,0,0,1-1.31,6.64,17.19,17.19,0,0,1-3.82,5.73L35,64.38,6.13,35.5a17.21,17.21,0,0,1-3.82-5.73A17.43,17.43,0,0,1,1,23.13a17.12,17.12,0,0,1,2.35-8.79A17.44,17.44,0,0,1,9.72,8,17.12,17.12,0,0,1,18.5,5.62a17.51,17.51,0,0,1,6.64,1.3,17.18,17.18,0,0,1,5.73,3.83L35,14.88l4.12-4.12a17.21,17.21,0,0,1,5.73-3.82A17.43,17.43,0,0,1,51.5,5.62Zm0,5.83a11.7,11.7,0,0,0-4.42.87,11.4,11.4,0,0,0-3.83,2.55L35,23.13l-8.25-8.25a11.43,11.43,0,0,0-3.83-2.55,11.7,11.7,0,0,0-4.42-.87A11.45,11.45,0,0,0,12.63,13a11.57,11.57,0,0,0-4.24,4.24,11.45,11.45,0,0,0-1.56,5.87,11.7,11.7,0,0,0,.87,4.42,11.43,11.43,0,0,0,2.55,3.83L35,56.13,59.74,31.38a11.43,11.43,0,0,0,2.55-3.83,11.7,11.7,0,0,0,.87-4.42,11.45,11.45,0,0,0-1.56-5.87A11.57,11.57,0,0,0,57.36,13a11.45,11.45,0,0,0-5.87-1.56Z"/></svg>