<svg id="Layer_1" data-name="Layer 1" xmlns="http://www.w3.org/2000/svg" viewBox="0 0 70 70"><title>zvuk</title><path d="M15.17,23.67,29.33,9.5v51L15.17,46.33H9.5a8.19,8.19,0,0,1-6-2.49,8.19,8.19,0,0,1-2.49-6V32.28a8.38,8.38,0,0,1,2.49-6.07,8.09,8.09,0,0,1,6-2.54Zm8.5,23.15V23.07l-6.15,6.26h-8a2.67,2.67,0,0,0-2,.88,2.89,2.89,0,0,0-.84,2.07v5.56A2.83,2.83,0,0,0,9.5,40.67h8Zm18.5-21.27a2.79,2.79,0,0,1,1.54.46,2.84,2.84,0,0,1,1.07,1.26A20,20,0,0,1,46.33,35a19.36,19.36,0,0,1-1.55,7.68,2.85,2.85,0,0,1-2.61,1.75,2.89,2.89,0,0,1-1.94-.78,2.58,2.58,0,0,1-.9-2,3.21,3.21,0,0,1,.22-1.11A13.92,13.92,0,0,0,40.67,35a14.17,14.17,0,0,0-1.11-5.51,2.76,2.76,0,0,1-.22-1.11,2.66,2.66,0,0,1,.85-2,2.82,2.82,0,0,1,2-.78Zm8.66-7.9A2.68,2.68,0,0,1,53.26,19a30,30,0,0,1,3.25,7.55A31.44,31.44,0,0,1,57.66,35a31.86,31.86,0,0,1-1.15,8.43A30.13,30.13,0,0,1,53.26,51a2.66,2.66,0,0,1-2.43,1.37,2.82,2.82,0,0,1-2-.8,2.66,2.66,0,0,1-.86-2,2.76,2.76,0,0,1,.42-1.46A25.61,25.61,0,0,0,52,35a24.86,24.86,0,0,0-1-6.89,25.1,25.1,0,0,0-2.64-6.18A2.58,2.58,0,0,1,48,20.5a2.69,2.69,0,0,1,.88-2,2.78,2.78,0,0,1,2-.83ZM59.3,9.88a2.64,2.64,0,0,1,2.35,1.24A42.23,42.23,0,0,1,69,35a42.48,42.48,0,0,1-1.87,12.51,41.79,41.79,0,0,1-5.48,11.38,2.61,2.61,0,0,1-2.35,1.24,2.76,2.76,0,0,1-2-.8,2.7,2.7,0,0,1-.83-2A2.76,2.76,0,0,1,57,55.7,35.93,35.93,0,0,0,63.33,35a36.79,36.79,0,0,0-1.61-10.85A36.32,36.32,0,0,0,57,14.31a2.75,2.75,0,0,1-.49-1.6,2.7,2.7,0,0,1,.83-2A2.76,2.76,0,0,1,59.3,9.88Z"/></svg>