<svg id="Layer_1" data-name="Layer 1" xmlns="http://www.w3.org/2000/svg" viewBox="0 0 380 95"><title>Artboard 1</title><path d="M34.27,25.6a25.09,25.09,0,0,1,7.64,4.51l-6.35,8.74a14.44,14.44,0,0,0-9.2-3.59A8.37,8.37,0,0,0,19,38.85q-2.49,3.59-2.48,11.6,0,7.73,2.48,11a8.52,8.52,0,0,0,7.18,3.22,12.08,12.08,0,0,0,4.6-.83A19.88,19.88,0,0,0,35.28,61l6.63,9.3a25.72,25.72,0,0,1-16.48,5.8A25.09,25.09,0,0,1,12.54,73,21.39,21.39,0,0,1,4.17,64,29.2,29.2,0,0,1,1.22,50.54,30.65,30.65,0,0,1,4.17,36.83a22.31,22.31,0,0,1,8.38-9.34,23.48,23.48,0,0,1,12.61-3.36A26.56,26.56,0,0,1,34.27,25.6Z"/><path d="M85.9,31q6.35,6.86,6.35,19.19a30.4,30.4,0,0,1-2.9,13.67,21.36,21.36,0,0,1-8.28,9.07,24.37,24.37,0,0,1-12.75,3.22q-11.14,0-17.53-6.86t-6.4-19.19a30.41,30.41,0,0,1,2.9-13.67,21.38,21.38,0,0,1,8.28-9.07,24.37,24.37,0,0,1,12.75-3.22Q79.55,24.13,85.9,31ZM61.69,38.53q-2.21,3.73-2.21,11.55,0,8,2.16,11.69a7.21,7.21,0,0,0,6.67,3.68,7.21,7.21,0,0,0,6.63-3.73Q77.16,58,77.16,50.18q0-8-2.16-11.69a7.21,7.21,0,0,0-6.67-3.68A7.21,7.21,0,0,0,61.69,38.53Z"/><path d="M164.23,28q3.5,3.91,3.5,10.81V74.57H153.18V41.34q0-6.53-4.14-6.53a5.89,5.89,0,0,0-4,1.56,16.61,16.61,0,0,0-3.41,4.79V74.57H127V41.34q0-6.53-4.14-6.53a5.85,5.85,0,0,0-4,1.61,17.08,17.08,0,0,0-3.45,4.74V74.57H100.9V25.69h12.7l1,5.71a19.38,19.38,0,0,1,6.31-5.48,16.8,16.8,0,0,1,7.87-1.79,12.43,12.43,0,0,1,7.13,2,11.6,11.6,0,0,1,4.37,5.71A19.87,19.87,0,0,1,146.79,26a17.08,17.08,0,0,1,8.15-1.89A11.86,11.86,0,0,1,164.23,28Z"/><path d="M220,30.89q4.56,6.77,4.56,19.1a36.45,36.45,0,0,1-2.35,13.48,21.09,21.09,0,0,1-6.77,9.3,16.56,16.56,0,0,1-10.31,3.36,15.13,15.13,0,0,1-11.87-5.06V93.44L178.68,95V25.69h12.79l.74,5.43a18.13,18.13,0,0,1,6.49-5.29,17.12,17.12,0,0,1,7.32-1.7Q215.4,24.13,220,30.89ZM209.42,50.18q0-8.65-2-12a6.53,6.53,0,0,0-6-3.36A7.55,7.55,0,0,0,197,36.28a13.78,13.78,0,0,0-3.73,4.23V61.13q2.95,4.33,7.46,4.33Q209.42,65.45,209.42,50.18Z"/><path d="M273.25,64.44a4.72,4.72,0,0,0,2.53,1.93l-3,9.48a17.93,17.93,0,0,1-7.36-2A10.57,10.57,0,0,1,261,68.77q-4.79,7.37-14.73,7.36-7.27,0-11.6-4.23a14.76,14.76,0,0,1-4.33-11q0-8,5.89-12.24t17-4.23h5V42.26q0-4.32-1.84-5.94t-6.44-1.61a29.91,29.91,0,0,0-5.8.69,59.69,59.69,0,0,0-7,1.89l-3.31-9.57A56.13,56.13,0,0,1,243.25,25a48.23,48.23,0,0,1,9-.92q10.49,0,15.37,4.33t4.88,13v19A8,8,0,0,0,273.25,64.44ZM258.2,61V52.38h-3.59q-5,0-7.41,1.75a6.23,6.23,0,0,0-2.44,5.43,6.38,6.38,0,0,0,1.52,4.56,5.47,5.47,0,0,0,4.19,1.61Q255.44,65.73,258.2,61Z"/><path d="M322.63,28q3.59,3.87,3.59,10.86V74.57H311.68V41.34q0-3.68-1.15-5.11a4.17,4.17,0,0,0-3.45-1.43q-4.42,0-8.47,6.35V74.57H284.07V25.69h12.7l1,5.8A22,22,0,0,1,304.55,26a17.78,17.78,0,0,1,8.15-1.84Q319,24.13,322.63,28Z"/><path d="M353.6,89.25q-6.67,5.11-17.9,5.75l-1.56-10.22q7-.92,10.35-3.13a15.06,15.06,0,0,0,5.38-7.09h-5L330,25.69h15.46l8.74,39.58,9.57-39.58h15l-15.56,49Q360.28,84.14,353.6,89.25Z"/></svg>